<svg id="Calque_1" data-name="Calque 1" xmlns="http://www.w3.org/2000/svg" viewBox="0 0 391.83 391.83"><defs><style>.cls-1{stroke:#000;stroke-miterlimit:10;}.cls-2,.cls-3{fill:none;}.cls-2{stroke:#fff;stroke-miterlimit:2;stroke-width:3px;}</style></defs><title>Code Café Logo</title><g id="Étampe_3B" data-name="Étampe 3B"><path class="cls-1" d="M111.84,202.67a11.84,11.84,0,0,1-6.26,4,35.62,35.62,0,0,1-10.67,1.08,35.38,35.38,0,0,1-10.6-1.57,11.77,11.77,0,0,1-6.06-4.22,11.65,11.65,0,0,1-1.85-7.12q.12-5.31,3.25-8.21T89.16,183l-.11,4.61A12.33,12.33,0,0,0,82.69,190a6.91,6.91,0,0,0,1.22,11q3.51,2,11.1,2.18t11.19-1.67a6.94,6.94,0,0,0,1.74-10.94,12.15,12.15,0,0,0-6.24-2.66l.1-4.62q6.35,1,9.34,4c2,2,3,4.81,2.87,8.36A11.64,11.64,0,0,1,111.84,202.67Z"/><path class="cls-1" d="M114.79,175.28a11.67,11.67,0,0,1-7.2,1.71,35.48,35.48,0,0,1-10.47-2.45,35.34,35.34,0,0,1-9.51-5,12.3,12.3,0,0,1,.6-19.31,11.59,11.59,0,0,1,7.19-1.7A35.76,35.76,0,0,1,105.85,151a35.66,35.66,0,0,1,9.53,5,11.71,11.71,0,0,1,4.36,6,11.91,11.91,0,0,1-.6,7.37A11.79,11.79,0,0,1,114.79,175.28ZM114,161q-2.66-3-9.78-5.68t-11.12-2.07a6.93,6.93,0,0,0-4.21,11.34q2.66,3,9.78,5.69t11.12,2.06A6.93,6.93,0,0,0,114,161Z"/><path class="cls-1" d="M97.3,130.51l5.44-6.63a17,17,0,0,1,6.88-5.4,11.14,11.14,0,0,1,7.6,0,29.32,29.32,0,0,1,9,5.39,29.2,29.2,0,0,1,7,7.78,11.18,11.18,0,0,1,1.49,7.46,17,17,0,0,1-3.95,7.8l-5.43,6.62Zm30.22,14.19A12,12,0,0,0,130.4,139a8,8,0,0,0-1.33-5.46,25.9,25.9,0,0,0-5.74-6.09,25.94,25.94,0,0,0-7.08-4.43,8,8,0,0,0-5.61-.23,12,12,0,0,0-5.07,4l-2.4,2.93,22,18Z"/><path class="cls-1" d="M126,101l18.42-11.41,2.1,3.38L131.83,102l6.11,9.87,11.87-7.36,2.08,3.36L140,115.25l6.75,10.92,14.69-9.09,2.07,3.35-18.42,11.41Z"/><path class="cls-1" d="M257.71,301.35a11.88,11.88,0,0,1-6.81-2.88,43.44,43.44,0,0,1-11.77-17.74,10.65,10.65,0,0,1,4.79-13q4.43-2.94,8.59-2t8.4,5.74L257.07,274a12.28,12.28,0,0,0-5.59-3.87,6.94,6.94,0,0,0-8.33,7.31q.36,4,4.56,10.35t7.76,8.22a6.93,6.93,0,0,0,10-4.83,12.27,12.27,0,0,0-1.39-6.64l3.85-2.55q2.8,5.78,2,10t-5.21,7.13A11.68,11.68,0,0,1,257.71,301.35Z"/><path class="cls-1" d="M261.78,252.6l3.22-4.06,35.15,14.08-2.83,3.58-9.2-3.78L280.54,272l5.8,8.08-2.77,3.5Zm22.54,8.22-16.5-6.8-.14.17,10.43,14.48Z"/><path class="cls-1" d="M273.32,235.8l7.45-20.32,3.73,1.37-5.94,16.21,11.14,4.09L294.52,224l3.73,1.37-4.82,13.14,15.48,5.67-1.5,4.11Z"/><path class="cls-1" d="M268.39,196.53l.18-5.42L277,199l-.14,4.3Zm12.82,13.88.71-21.66,4,.13-.56,17.26,11.59.38.46-14,3.94.13-.45,14,12.83.42.56-17.26,3.95.13-.71,21.66Z"/><path d="M192.24,220.1a10.69,10.69,0,0,1-5.28-3.25,12.76,12.76,0,0,1-2.92-5.92,13,13,0,0,1,.36-7,19.86,19.86,0,0,1,4.28-6.86A26.51,26.51,0,0,1,184,192a14.06,14.06,0,0,1-2.07-4.76,10.73,10.73,0,0,1,.14-5.56A9.11,9.11,0,0,1,185,177.3a11.42,11.42,0,0,1,5.12-2.43,11.84,11.84,0,0,1,5.59,0,9.21,9.21,0,0,1,4.37,2.54,9.55,9.55,0,0,1,2.38,4.63,10,10,0,0,1-.93,6.86,24.66,24.66,0,0,1-6.23,7.18L206.53,205l.13,0a32.89,32.89,0,0,0-.8-10l4.87-1.06a33,33,0,0,1,.78,7.52,23.74,23.74,0,0,1-1,6.7l8.67,6.81-6.28,1.37-4.18-3.37a13.17,13.17,0,0,1-3.87,4.66,14.71,14.71,0,0,1-5.75,2.57A14.07,14.07,0,0,1,192.24,220.1Zm3.54-30.46a8.81,8.81,0,0,0,1.67-3.08,6.44,6.44,0,0,0,0-3.09,4.92,4.92,0,0,0-6.19-4,5.33,5.33,0,0,0-3.63,2.33,5.79,5.79,0,0,0-.51,4.38,10.55,10.55,0,0,0,1.53,3.51,20.65,20.65,0,0,0,3.37,3.78A33.62,33.62,0,0,0,195.78,189.64Zm9.39,20.56L192,199.79a13,13,0,0,0-2.57,4.69,10.13,10.13,0,0,0-.09,4.9,7.8,7.8,0,0,0,3.22,5.13,7.41,7.41,0,0,0,5.88.87A9.67,9.67,0,0,0,205.17,210.2Z"/><g id="Bras_Code_Café" data-name="Bras Code &amp; Café"><polygon class="cls-2" points="253.81 44.27 238 50.3 201.41 129.18 220.61 147.41 242.36 143.58 277.16 88.06 281.51 63.48 253.81 44.27"/><polygon class="cls-2" points="291.86 70.72 283.91 92.46 374.76 143.13 385.31 125.01 291.86 70.72"/><polygon class="cls-2" points="226.85 157.5 252.97 151.15 257.51 190.35 239.93 193.46 226.85 157.5"/><polygon class="cls-2" points="236.52 199.41 229.49 215.82 239.67 232.41 257.38 230.82 266.6 213.76 256.51 199 236.52 199.41"/><polygon class="cls-2" points="224.33 221.27 190.55 262.7 237.16 238.46 224.33 221.27"/><polygon class="cls-2" points="142.2 194.58 164.34 193.81 154.06 243.69 142.2 194.58"/><polygon class="cls-2" points="165.21 186.35 142.95 188.02 132.57 173.22 141.3 155.19 159.34 153.34 169.99 168.47 165.21 186.35"/><polygon class="cls-2" points="167.56 152.78 177.66 168.75 213.44 153.24 196.95 133.81 167.56 152.78"/><circle class="cls-2" cx="249.52" cy="215.11" r="6.3"/><circle class="cls-2" cx="153.78" cy="170.98" r="6.43"/><circle class="cls-2" cx="229.21" cy="122.14" r="16.81"/><circle class="cls-2" cx="256.08" cy="67.8" r="13.21"/><circle class="cls-2" cx="256.08" cy="67.8" r="4.6"/></g><g id="Contour"><path class="cls-1" d="M235.39,312.79A120.88,120.88,0,0,1,78.72,222.05l36.16-7.64a83.89,83.89,0,0,0,108.81,63.34Z"/><path class="cls-1" d="M315,172.09l-36.15,7.65a83.58,83.58,0,0,0-21.39-39.63l20-32A120.56,120.56,0,0,1,315,172.09Z"/><path class="cls-1" d="M212.14,78.41l-16.72,36a83.67,83.67,0,0,0-24.85,4.27l-11.7-35a121.41,121.41,0,0,1,53.27-5.26Z"/></g></g><rect class="cls-3" width="391.83" height="391.83"/></svg>